<?xml version="1.0" encoding="UTF-8" standalone="no"?>
<svg width="277px" height="318px" viewBox="0 0 277 318" version="1.1" xmlns="http://www.w3.org/2000/svg" xmlns:xlink="http://www.w3.org/1999/xlink">
    <!-- Generator: Sketch 41.2 (35397) - http://www.bohemiancoding.com/sketch -->
    <title>Numeral</title>
    <desc>Created with Sketch.</desc>
    <defs>
        <circle id="path-1" cx="156" cy="156" r="156"></circle>
    </defs>
    <g id="Designs" stroke="none" stroke-width="1" fill="none" fill-rule="evenodd">
        <g id="00-Home-1-Tab-2" transform="translate(-100.000000, -1818.000000)">
            <g id="Bottom" transform="translate(0.000000, 1688.000000)">
                <g id="User-Quotes">
                    <g id="Card-Copy" transform="translate(100.000000, 80.000000)">
                        <g id="Numeral" transform="translate(-38.000000, 53.000000)">
                            <mask id="mask-2" fill="white">
                                <use xlink:href="#path-1"></use>
                            </mask>
                            <use id="Oval-3" stroke="#14C6BC" stroke-width="6" xlink:href="#path-1"></use>
                            <g id="Group-9" mask="url(#mask-2)" fill="#0D1A31">
                                <g transform="translate(63.000000, 115.000000)">
                                    <path d="M39.02,34.56 C41.7000134,33.8799966 44.2299881,33.3900015 46.61,33.09 C48.9900119,32.7899985 51.2599892,32.64 53.42,32.64 C57.8600222,32.64 61.7599832,33.2699937 65.12,34.53 C68.4800168,35.7900063 71.2899887,37.5499887 73.55,39.81 C75.8100113,42.0700113 77.5099943,44.7599844 78.65,47.88 C79.7900057,51.0000156 80.36,54.3999816 80.36,58.08 C80.36,62.5600224 79.5900077,66.5699823 78.05,70.11 C76.5099923,73.6500177 74.4000134,76.6599876 71.72,79.14 C69.0399866,81.6200124 65.9200178,83.5199934 62.36,84.84 C58.7999822,86.1600066 55.02002,86.82 51.02,86.82 C48.6999884,86.82 46.4700107,86.6100021 44.33,86.19 C42.1899893,85.7699979 40.1900093,85.2100035 38.33,84.51 C36.4699907,83.8099965 34.7500079,83.0000046 33.17,82.08 C31.5899921,81.1599954 30.200006,80.2200048 29,79.26 L30.74,76.92 C31.1000018,76.319997 31.6599962,76.02 32.42,76.02 C32.9400026,76.02 33.6899951,76.319997 34.67,76.92 C35.6500049,77.520003 36.9099923,78.1799964 38.45,78.9 C39.9900077,79.6200036 41.8199894,80.279997 43.94,80.88 C46.0600106,81.480003 48.519986,81.78 51.32,81.78 C54.6000164,81.78 57.6599858,81.2500053 60.5,80.19 C63.3400142,79.1299947 65.7999896,77.60001 67.88,75.6 C69.9600104,73.59999 71.5899941,71.1300147 72.77,68.19 C73.9500059,65.2499853 74.54,61.9200186 74.54,58.2 C74.54,55.1599848 74.0900045,52.3600128 73.19,49.8 C72.2899955,47.2399872 70.9300091,45.0500091 69.11,43.23 C67.2899909,41.4099909 64.9900139,39.9900051 62.21,38.97 C59.4299861,37.9499949 56.1600188,37.44 52.4,37.44 C50.1199886,37.44 47.7000128,37.6199982 45.14,37.98 C42.5799872,38.3400018 39.8600144,38.919996 36.98,39.72 L33.32,38.58 L39.92,0.96 L78.14,0.96 L78.14,3.42 C78.14,4.220004 77.8700027,4.8899973 77.33,5.43 C76.7899973,5.9700027 75.9400058,6.24 74.78,6.24 L44.06,6.24 L39.02,34.56 Z M121.82,82.26 C125.060016,82.26 128.009987,81.8100045 130.67,80.91 C133.330013,80.0099955 135.61999,78.7300083 137.54,77.07 C139.46001,75.4099917 140.939995,73.4200116 141.98,71.1 C143.020005,68.7799884 143.54,66.2000142 143.54,63.36 C143.54,59.6399814 142.860007,56.5400124 141.5,54.06 C140.139993,51.5799876 138.400011,49.6000074 136.28,48.12 C134.159989,46.6399926 131.820013,45.5900031 129.26,44.97 C126.699987,44.3499969 124.220012,44.04 121.82,44.04 C119.419988,44.04 116.940013,44.3499969 114.38,44.97 C111.819987,45.5900031 109.480011,46.6399926 107.36,48.12 C105.239989,49.6000074 103.500007,51.5799876 102.14,54.06 C100.779993,56.5400124 100.1,59.6399814 100.1,63.36 C100.1,66.2000142 100.619995,68.7799884 101.66,71.1 C102.700005,73.4200116 104.16999,75.4099917 106.07,77.07 C107.970009,78.7300083 110.259987,80.0099955 112.94,80.91 C115.620013,81.8100045 118.579984,82.26 121.82,82.26 L121.82,82.26 Z M102.86,21.72 C102.86,24.0000114 103.229996,26.1999894 103.97,28.32 C104.710004,30.4400106 105.859992,32.3299917 107.42,33.99 C108.980008,35.6500083 110.949988,36.9699951 113.33,37.95 C115.710012,38.9300049 118.539984,39.42 121.82,39.42 C125.060016,39.42 127.869988,38.9300049 130.25,37.95 C132.630012,36.9699951 134.599992,35.6500083 136.16,33.99 C137.720008,32.3299917 138.869996,30.4400106 139.61,28.32 C140.350004,26.1999894 140.72,24.0000114 140.72,21.72 C140.72,19.2799878 140.300004,17.0100105 139.46,14.91 C138.619996,12.8099895 137.390008,10.9800078 135.77,9.42 C134.149992,7.8599922 132.170012,6.6400044 129.83,5.76 C127.489988,4.8799956 124.820015,4.44 121.82,4.44 C118.819985,4.44 116.140012,4.8799956 113.78,5.76 C111.419988,6.6400044 109.430008,7.8599922 107.81,9.42 C106.189992,10.9800078 104.960004,12.8099895 104.12,14.91 C103.279996,17.0100105 102.86,19.2799878 102.86,21.72 L102.86,21.72 Z M130.88,41.52 C133.600014,42.120003 136.089989,43.019994 138.35,44.22 C140.610011,45.420006 142.559992,46.919991 144.2,48.72 C145.840008,50.520009 147.119995,52.6399878 148.04,55.08 C148.960005,57.5200122 149.42,60.2999844 149.42,63.42 C149.42,67.020018 148.740007,70.2599856 147.38,73.14 C146.019993,76.0200144 144.130012,78.4799898 141.71,80.52 C139.289988,82.5600102 136.390017,84.1199946 133.01,85.2 C129.629983,86.2800054 125.90002,86.82 121.82,86.82 C117.73998,86.82 114.010017,86.2800054 110.63,85.2 C107.249983,84.1199946 104.350012,82.5600102 101.93,80.52 C99.5099879,78.4799898 97.6200068,76.0200144 96.26,73.14 C94.8999932,70.2599856 94.22,67.020018 94.22,63.42 C94.22,60.2999844 94.6799954,57.5200122 95.6,55.08 C96.5200046,52.6399878 97.7899919,50.520009 99.41,48.72 C101.030008,46.919991 102.969989,45.420006 105.23,44.22 C107.490011,43.019994 109.979986,42.120003 112.7,41.52 C110.219988,40.7999964 108.02001,39.8200062 106.1,38.58 C104.17999,37.3399938 102.570006,35.8600086 101.27,34.14 C99.9699935,32.4199914 98.9800034,30.5100105 98.3,28.41 C97.6199966,26.3099895 97.28,24.060012 97.28,21.66 C97.28,18.659985 97.8499943,15.8400132 98.99,13.2 C100.130006,10.5599868 101.759989,8.2600098 103.88,6.3 C106.000011,4.3399902 108.569985,2.8000056 111.59,1.68 C114.610015,0.5599944 118.019981,0 121.82,0 C125.580019,0 128.969985,0.5599944 131.99,1.68 C135.010015,2.8000056 137.589989,4.3399902 139.73,6.3 C141.870011,8.2600098 143.509994,10.5599868 144.65,13.2 C145.790006,15.8400132 146.36,18.659985 146.36,21.66 C146.36,24.060012 146.020003,26.3099895 145.34,28.41 C144.659997,30.5100105 143.660007,32.4099915 142.34,34.11 C141.019993,35.8100085 139.40001,37.2899937 137.48,38.55 C135.55999,39.8100063 133.360012,40.7999964 130.88,41.52 L130.88,41.52 Z" id="58" stroke="none"></path>
                                    <path d="M172.375,10.125 C172.375,11.5750073 172.175002,12.8541611 171.775,13.9625 C171.374998,15.0708389 170.833337,15.991663 170.15,16.725 C169.466663,17.458337 168.675005,18.0124981 167.775,18.3875 C166.874996,18.7625019 165.925005,18.95 164.925,18.95 C163.891661,18.95 162.920838,18.7625019 162.0125,18.3875 C161.104162,18.0124981 160.31667,17.458337 159.65,16.725 C158.98333,15.991663 158.458335,15.0708389 158.075,13.9625 C157.691665,12.8541611 157.5,11.5750073 157.5,10.125 C157.5,8.658326 157.691665,7.36667225 158.075,6.25 C158.458335,5.13332775 158.98333,4.20417038 159.65,3.4625 C160.31667,2.72082963 161.104162,2.16250188 162.0125,1.7875 C162.920838,1.41249813 163.891661,1.225 164.925,1.225 C165.958338,1.225 166.924995,1.41249813 167.825,1.7875 C168.725005,2.16250188 169.512497,2.72082963 170.1875,3.4625 C170.862503,4.20417038 171.395831,5.13332775 171.7875,6.25 C172.179169,7.36667225 172.375,8.658326 172.375,10.125 L172.375,10.125 Z M170.475,10.125 C170.475,8.84166025 170.329168,7.74167125 170.0375,6.825 C169.745832,5.90832875 169.345836,5.15416963 168.8375,4.5625 C168.329164,3.97083038 167.737503,3.53750138 167.0625,3.2625 C166.387497,2.98749863 165.675004,2.85 164.925,2.85 C164.174996,2.85 163.46667,2.98749863 162.8,3.2625 C162.13333,3.53750138 161.550003,3.97083038 161.05,4.5625 C160.549998,5.15416963 160.154168,5.90832875 159.8625,6.825 C159.570832,7.74167125 159.425,8.84166025 159.425,10.125 C159.425,11.4083398 159.570832,12.5041621 159.8625,13.4125 C160.154168,14.3208379 160.549998,15.0666638 161.05,15.65 C161.550003,16.2333363 162.13333,16.6624986 162.8,16.9375 C163.46667,17.2125014 164.174996,17.35 164.925,17.35 C165.675004,17.35 166.387497,17.2125014 167.0625,16.9375 C167.737503,16.6624986 168.329164,16.2333363 168.8375,15.65 C169.345836,15.0666638 169.745832,14.3208379 170.0375,13.4125 C170.329168,12.5041621 170.475,11.4083398 170.475,10.125 L170.475,10.125 Z M185.8,2.075 C185.900001,1.941666 186.020833,1.83333375 186.1625,1.75 C186.304167,1.66666625 186.491666,1.625 186.725,1.625 L188.4,1.625 L163,36.55 C162.783332,36.8500015 162.491669,37 162.125,37 L160.425,37 L185.8,2.075 Z M191.475,28.6 C191.475,30.0500073 191.275002,31.3291611 190.875,32.4375 C190.474998,33.5458389 189.937503,34.466663 189.2625,35.2 C188.587497,35.933337 187.800005,36.4874981 186.9,36.8625 C185.999996,37.2375019 185.050005,37.425 184.05,37.425 C183.016661,37.425 182.045838,37.2375019 181.1375,36.8625 C180.229162,36.4874981 179.44167,35.933337 178.775,35.2 C178.10833,34.466663 177.583335,33.5458389 177.2,32.4375 C176.816665,31.3291611 176.625,30.0500073 176.625,28.6 C176.625,27.133326 176.816665,25.8416723 177.2,24.725 C177.583335,23.6083278 178.10833,22.6791704 178.775,21.9375 C179.44167,21.1958296 180.229162,20.6375019 181.1375,20.2625 C182.045838,19.8874981 183.016661,19.7 184.05,19.7 C185.083338,19.7 186.049995,19.8874981 186.95,20.2625 C187.850005,20.6375019 188.637497,21.1958296 189.3125,21.9375 C189.987503,22.6791704 190.516665,23.6083278 190.9,24.725 C191.283335,25.8416723 191.475,27.133326 191.475,28.6 L191.475,28.6 Z M189.575,28.6 C189.575,27.3166603 189.429168,26.2125046 189.1375,25.2875 C188.845832,24.3624954 188.450003,23.6041696 187.95,23.0125 C187.449998,22.4208304 186.862503,21.9875014 186.1875,21.7125 C185.512497,21.4374986 184.800004,21.3 184.05,21.3 C183.299996,21.3 182.587503,21.4374986 181.9125,21.7125 C181.237497,21.9875014 180.650003,22.4208304 180.15,23.0125 C179.649998,23.6041696 179.254168,24.3624954 178.9625,25.2875 C178.670832,26.2125046 178.525,27.3166603 178.525,28.6 C178.525,29.8833398 178.670832,30.9791621 178.9625,31.8875 C179.254168,32.7958379 179.649998,33.5416638 180.15,34.125 C180.650003,34.7083363 181.237497,35.133332 181.9125,35.4 C182.587503,35.666668 183.299996,35.8 184.05,35.8 C184.800004,35.8 185.512497,35.666668 186.1875,35.4 C186.862503,35.133332 187.449998,34.7083363 187.95,34.125 C188.450003,33.5416638 188.845832,32.7958379 189.1375,31.8875 C189.429168,30.9791621 189.575,29.8833398 189.575,28.6 L189.575,28.6 Z" id="%" stroke="#0D1A31" stroke-width="1"></path>
                                    <path d="M11.5684792,4.08644251 C11.3785991,3.52986574 10.94174,3.08921284 10.3899551,2.89768372 L9.5,2 L8.15649712,3.35517025 L0.556497116,11.0211708 C-0.185499039,11.7696107 -0.185499039,12.9830714 0.556497116,13.7315113 C1.29849327,14.4799512 2.50150673,14.4799512 3.24350288,13.7315113 L7.87142857,9.06339539 L7.87142857,28.2559137 C7.87142857,29.3143675 8.72208755,30.1724138 9.77142857,30.1724138 C10.8207696,30.1724138 11.6714286,29.3143675 11.6714286,28.2559137 L11.6714286,9.61096686 L15.7564971,13.7315113 C16.4984933,14.4799512 17.7015067,14.4799512 18.4435029,13.7315113 C19.185499,12.9830714 19.185499,11.7696107 18.4435029,11.0211708 L11.5684792,4.08644251 Z" id="Combined-Shape" stroke="none"></path>
                                </g>
                            </g>
                        </g>
                    </g>
                </g>
            </g>
        </g>
    </g>
</svg>